<svg xmlns="http://www.w3.org/2000/svg" xmlns:xlink="http://www.w3.org/1999/xlink" width="336" zoomAndPan="magnify" viewBox="0 0 252 143.999998" height="192" preserveAspectRatio="xMidYMid meet" version="1.0"><defs><g/><clipPath id="a8ca745b67"><path d="M 0.546875 1.027344 L 134.269531 1.027344 L 134.269531 30.871094 L 0.546875 30.871094 Z M 0.546875 1.027344 " clip-rule="nonzero"/></clipPath><clipPath id="8369da0499"><path d="M 98.4375 1.027344 L 134.097656 1.027344 L 134.097656 36.296875 L 98.4375 36.296875 Z M 98.4375 1.027344 " clip-rule="nonzero"/></clipPath><clipPath id="7ba2f4e14d"><path d="M 45 25 L 92 25 L 92 45.320312 L 45 45.320312 Z M 45 25 " clip-rule="nonzero"/></clipPath><clipPath id="1976544773"><path d="M 39 7 L 46.800781 7 L 46.800781 16 L 39 16 Z M 39 7 " clip-rule="nonzero"/></clipPath><clipPath id="f8d076dbbe"><rect x="0" width="47" y="0" height="21"/></clipPath><clipPath id="1a9b171c70"><rect x="0" width="51" y="0" height="24"/></clipPath><clipPath id="03e4876aaa"><path d="M 1 1 L 10.238281 1 L 10.238281 11 L 1 11 Z M 1 1 " clip-rule="nonzero"/></clipPath><clipPath id="5a76349969"><rect x="0" width="11" y="0" height="14"/></clipPath><clipPath id="848bd09d0c"><path d="M 206 9 L 244.441406 9 L 244.441406 33 L 206 33 Z M 206 9 " clip-rule="nonzero"/></clipPath><clipPath id="a2530d3fce"><path d="M 29 6 L 38.441406 6 L 38.441406 19 L 29 19 Z M 29 6 " clip-rule="nonzero"/></clipPath><clipPath id="79c9a341a9"><rect x="0" width="39" y="0" height="24"/></clipPath><clipPath id="6e565afa6f"><rect x="0" width="245" y="0" height="46"/></clipPath></defs><g transform="matrix(1, 0, 0, 1, 3, 49)"><g clip-path="url(#6e565afa6f)"><g clip-path="url(#a8ca745b67)"><path fill="#ffffff" d="M 66.886719 11.015625 C 65.484375 11.023438 64.421875 10.011719 64.40625 8.660156 C 64.386719 7.328125 65.511719 6.234375 66.894531 6.246094 C 68.261719 6.253906 69.367188 7.324219 69.367188 8.640625 C 69.367188 9.957031 68.269531 11.007812 66.886719 11.015625 M 88.65625 6.246094 C 87.3125 6.257812 86.210938 7.316406 86.203125 8.609375 C 86.199219 9.984375 87.261719 11.019531 88.675781 11.019531 C 90.085938 11.015625 91.128906 10.007812 91.132812 8.648438 C 91.132812 7.277344 90.054688 6.230469 88.65625 6.242188 M 60.167969 41.300781 C 60.078125 42.492188 59.378906 43.394531 58.292969 43.65625 C 56.941406 43.984375 55.722656 43.699219 54.726562 42.683594 C 54.472656 42.425781 54.28125 42.449219 54.074219 42.707031 C 54.003906 42.792969 53.9375 42.886719 53.855469 42.960938 C 53.578125 43.191406 53.667969 43.359375 53.910156 43.558594 C 55.039062 44.488281 56.304688 44.917969 57.777344 44.773438 C 60.035156 44.546875 61.300781 43.183594 61.304688 40.894531 C 61.304688 38.625 61.304688 36.355469 61.304688 34.085938 C 61.304688 33.359375 61.222656 33.296875 60.507812 33.339844 C 60.246094 33.355469 60.171875 33.472656 60.179688 33.710938 C 60.191406 33.953125 60.183594 34.199219 60.183594 34.488281 C 58.125 32.808594 55.921875 32.75 54.507812 34.300781 C 53.101562 35.84375 53.085938 38.351562 54.476562 39.8125 C 55.910156 41.316406 58.222656 41.253906 60.175781 39.609375 C 60.175781 40.210938 60.207031 40.761719 60.167969 41.304688 M 57.40625 34.101562 C 59.011719 34.085938 60.273438 35.378906 60.292969 37.058594 C 60.316406 38.734375 59.148438 39.921875 57.480469 39.933594 C 55.792969 39.941406 54.636719 38.777344 54.625 37.050781 C 54.613281 35.390625 55.8125 34.117188 57.402344 34.101562 M 84.292969 33.960938 C 84.28125 33.410156 84.199219 33.359375 83.605469 33.335938 C 83.113281 33.3125 83.15625 33.621094 83.15625 33.9375 C 83.160156 37.3125 83.160156 40.6875 83.160156 44.058594 C 83.160156 44.160156 83.160156 44.257812 83.164062 44.351562 C 83.179688 44.886719 83.578125 44.753906 83.894531 44.78125 C 84.253906 44.8125 84.300781 44.605469 84.296875 44.3125 C 84.289062 42.96875 84.292969 41.625 84.292969 40.277344 L 84.292969 39.761719 C 85.265625 40.507812 86.21875 41.074219 87.410156 41.082031 C 88.640625 41.089844 89.585938 40.550781 90.285156 39.578125 C 91.476562 37.921875 91.230469 35.394531 89.777344 34.085938 C 88.277344 32.734375 86.109375 32.871094 84.292969 34.488281 C 84.292969 34.261719 84.296875 34.109375 84.292969 33.960938 M 87.058594 40.152344 C 85.429688 40.160156 84.1875 38.863281 84.1875 37.148438 C 84.1875 35.417969 85.398438 34.117188 87.027344 34.101562 C 88.671875 34.082031 89.839844 35.339844 89.839844 37.136719 C 89.84375 38.910156 88.707031 40.144531 87.0625 40.152344 M 70.265625 33.125 C 68.179688 33.050781 66.339844 34.792969 66.289062 36.882812 C 66.226562 39.320312 67.839844 41.082031 70.15625 41.113281 C 72.578125 41.144531 74.253906 39.53125 74.316406 37.113281 C 74.371094 34.878906 72.679688 33.210938 70.265625 33.125 M 69.308594 39.980469 C 68.300781 39.617188 67.769531 38.835938 67.550781 37.808594 C 67.214844 36.25 67.988281 34.734375 69.363281 34.257812 C 71.28125 33.59375 73.132812 35.019531 73.125 37.160156 C 73.121094 39.273438 71.234375 40.675781 69.308594 39.980469 M 80.644531 40.5 C 80.683594 40.898438 80.785156 40.929688 81.417969 40.917969 C 81.78125 40.914062 81.730469 40.6875 81.730469 40.46875 C 81.722656 39.125 81.710938 37.78125 81.703125 36.4375 C 81.699219 35.582031 81.710938 34.726562 81.695312 33.875 C 81.6875 33.382812 81.597656 33.351562 80.984375 33.335938 C 80.546875 33.320312 80.566406 33.582031 80.566406 33.878906 C 80.566406 35.082031 80.566406 36.285156 80.554688 37.492188 C 80.550781 38.210938 80.34375 38.878906 79.859375 39.421875 C 79.28125 40.074219 78.550781 40.273438 77.707031 40.074219 C 76.925781 39.886719 76.558594 39.328125 76.410156 38.597656 C 76.335938 38.214844 76.308594 37.816406 76.304688 37.429688 C 76.292969 36.253906 76.300781 35.074219 76.300781 33.898438 C 76.296875 33.375 76.242188 33.339844 75.726562 33.320312 C 75.320312 33.304688 75.175781 33.433594 75.183594 33.867188 C 75.21875 35.421875 75.175781 36.976562 75.222656 38.527344 C 75.269531 40.179688 76.589844 41.261719 78.226562 41.105469 C 79.171875 41.015625 79.914062 40.601562 80.597656 39.886719 C 80.613281 40.089844 80.621094 40.296875 80.640625 40.5 M 63.777344 33.808594 C 63.738281 33.328125 63.738281 33.347656 63.050781 33.335938 C 62.652344 33.332031 62.6875 33.578125 62.6875 33.835938 C 62.699219 36.007812 62.707031 38.175781 62.71875 40.34375 C 62.722656 40.867188 62.789062 40.894531 63.390625 40.917969 C 63.859375 40.933594 63.867188 40.652344 63.859375 40.320312 C 63.855469 40.253906 63.847656 40.183594 63.847656 40.113281 C 63.871094 38.839844 63.859375 37.566406 63.925781 36.296875 C 63.988281 35.132812 64.671875 34.429688 65.78125 34.273438 C 66.027344 34.238281 66.28125 34.269531 66.53125 34.253906 C 66.632812 34.246094 66.765625 34.226562 66.824219 34.160156 C 67.136719 33.800781 66.929688 33.214844 66.464844 33.171875 C 66.167969 33.144531 65.851562 33.175781 65.558594 33.234375 C 64.835938 33.371094 64.332031 33.84375 63.84375 34.488281 C 63.8125 34.195312 63.792969 34 63.777344 33.808594 M 4.742188 14.917969 C 4.738281 14.394531 4.65625 14.347656 4.125 14.359375 C 3.144531 14.382812 2.164062 14.390625 1.1875 14.371094 C 0.621094 14.355469 0.550781 14.390625 0.550781 14.945312 C 0.546875 18.9375 0.546875 22.933594 0.546875 26.929688 C 0.546875 27.484375 0.585938 27.527344 1.132812 27.527344 C 2.15625 27.527344 3.175781 27.523438 4.199219 27.527344 C 4.863281 27.527344 4.917969 27.484375 4.914062 26.816406 C 4.902344 24.738281 4.882812 22.664062 4.882812 20.585938 C 4.878906 19.820312 4.984375 19.078125 5.4375 18.429688 C 5.933594 17.722656 6.617188 17.472656 7.441406 17.625 C 8.203125 17.769531 8.578125 18.320312 8.742188 19.03125 C 8.816406 19.355469 8.855469 19.691406 8.855469 20.023438 C 8.863281 22.332031 8.859375 24.644531 8.859375 26.953125 C 8.859375 27.476562 8.90625 27.523438 9.425781 27.523438 C 10.476562 27.527344 11.53125 27.523438 12.582031 27.523438 C 13.128906 27.523438 13.175781 27.476562 13.175781 26.933594 C 13.175781 24.769531 13.171875 22.605469 13.175781 20.441406 C 13.175781 19.589844 13.371094 18.808594 13.964844 18.15625 C 14.746094 17.296875 16.636719 17.296875 17 18.929688 C 17.09375 19.351562 17.164062 19.789062 17.167969 20.21875 C 17.183594 22.46875 17.183594 24.71875 17.164062 26.972656 C 17.160156 27.402344 17.316406 27.535156 17.71875 27.527344 C 18.785156 27.515625 19.851562 27.527344 20.917969 27.523438 C 21.433594 27.523438 21.488281 27.46875 21.488281 26.953125 C 21.488281 24.484375 21.492188 22.015625 21.484375 19.546875 C 21.484375 19.097656 21.460938 18.644531 21.390625 18.203125 C 21.203125 17.035156 20.828125 15.941406 19.929688 15.121094 C 18.300781 13.632812 15.433594 13.574219 13.699219 14.996094 C 13.304688 15.320312 12.972656 15.722656 12.605469 16.09375 C 10.980469 13.335938 6.675781 13.3125 4.742188 15.933594 C 4.742188 15.535156 4.742188 15.226562 4.742188 14.914062 M 41.65625 14.917969 C 41.65625 14.402344 41.578125 14.351562 41.082031 14.359375 C 40.058594 14.378906 39.035156 14.375 38.011719 14.359375 C 37.539062 14.355469 37.449219 14.40625 37.449219 14.882812 C 37.449219 18.921875 37.453125 22.960938 37.441406 27.003906 C 37.441406 27.410156 37.585938 27.535156 37.972656 27.53125 C 39.039062 27.515625 40.105469 27.527344 41.171875 27.527344 C 41.769531 27.527344 41.804688 27.488281 41.804688 26.882812 C 41.808594 24.734375 41.808594 22.582031 41.804688 20.433594 C 41.804688 19.734375 41.925781 19.074219 42.335938 18.496094 C 42.882812 17.722656 43.640625 17.464844 44.539062 17.636719 C 45.335938 17.789062 45.714844 18.371094 45.859375 19.125 C 45.9375 19.535156 46.003906 19.957031 46.007812 20.375 C 46.019531 22.554688 46.011719 24.734375 46.011719 26.914062 C 46.011719 27.480469 46.058594 27.527344 46.632812 27.527344 C 47.671875 27.527344 48.707031 27.527344 49.746094 27.527344 C 50.304688 27.527344 50.382812 27.460938 50.378906 26.910156 C 50.375 26.136719 50.347656 25.371094 50.347656 24.601562 C 50.339844 22.84375 50.359375 21.082031 50.339844 19.324219 C 50.324219 17.890625 50.042969 16.53125 49.0625 15.402344 C 47.640625 13.765625 44.035156 13.222656 42.046875 15.621094 C 41.949219 15.742188 41.84375 15.859375 41.65625 16.078125 C 41.65625 15.609375 41.65625 15.261719 41.65625 14.917969 M 75.582031 14.929688 C 75.578125 14.390625 75.511719 14.355469 74.976562 14.363281 C 73.984375 14.382812 72.988281 14.382812 71.996094 14.363281 C 71.476562 14.351562 71.386719 14.40625 71.386719 14.929688 C 71.386719 18.9375 71.386719 22.949219 71.386719 26.957031 C 71.386719 27.492188 71.417969 27.523438 71.945312 27.527344 C 72.96875 27.527344 73.992188 27.523438 75.015625 27.527344 C 75.707031 27.527344 75.757812 27.488281 75.753906 26.796875 C 75.746094 24.71875 75.726562 22.644531 75.722656 20.566406 C 75.71875 19.753906 75.847656 18.976562 76.394531 18.324219 C 76.957031 17.652344 77.683594 17.480469 78.503906 17.648438 C 79.265625 17.808594 79.632812 18.367188 79.78125 19.078125 C 79.875 19.53125 79.933594 19.996094 79.9375 20.457031 C 79.953125 22.621094 79.941406 24.785156 79.945312 26.949219 C 79.945312 27.519531 79.953125 27.53125 80.53125 27.523438 C 80.890625 27.519531 81.25 27.492188 81.609375 27.492188 C 82.316406 27.496094 83.023438 27.503906 83.730469 27.53125 C 84.125 27.546875 84.308594 27.445312 84.285156 26.996094 C 84.246094 26.34375 84.28125 25.6875 84.273438 25.035156 C 84.25 22.785156 84.292969 20.53125 84.167969 18.289062 C 84.0625 16.40625 83.128906 14.957031 81.300781 14.308594 C 79.421875 13.640625 77.695312 14 76.210938 15.375 C 76.015625 15.558594 75.851562 15.769531 75.582031 16.066406 C 75.582031 15.609375 75.582031 15.269531 75.582031 14.929688 M 31.359375 26.851562 C 31.347656 27.492188 31.40625 27.539062 32.027344 27.527344 C 32.90625 27.519531 33.785156 27.519531 34.664062 27.527344 C 35.253906 27.535156 35.3125 27.496094 35.3125 26.910156 C 35.3125 24.703125 35.332031 22.496094 35.300781 20.289062 C 35.289062 19.550781 35.203125 18.808594 35.058594 18.085938 C 34.6875 16.242188 33.746094 14.847656 31.867188 14.277344 C 30.816406 13.957031 29.734375 13.921875 28.652344 13.988281 C 26.878906 14.097656 25.273438 14.675781 23.882812 15.808594 C 23.492188 16.128906 23.496094 16.203125 23.835938 16.5625 C 24.28125 17.039062 24.730469 17.511719 25.160156 17.996094 C 25.648438 18.542969 25.640625 18.546875 26.230469 18.125 C 27.246094 17.402344 28.355469 17.039062 29.613281 17.261719 C 30.507812 17.421875 31.160156 18.054688 31.214844 18.792969 C 31.238281 19.125 31.128906 19.269531 30.785156 19.277344 C 30.066406 19.296875 29.34375 19.324219 28.628906 19.382812 C 27.195312 19.507812 25.828125 19.851562 24.5625 20.582031 C 22.207031 21.941406 22.4375 25.691406 24.546875 26.984375 C 25.792969 27.75 27.140625 27.992188 28.574219 27.675781 C 29.597656 27.449219 30.472656 26.9375 31.359375 26.179688 C 31.359375 26.480469 31.359375 26.664062 31.359375 26.851562 M 31.28125 22.964844 C 30.90625 24.605469 28.898438 25.460938 27.460938 24.589844 C 26.699219 24.125 26.609375 23.054688 27.367188 22.554688 C 27.855469 22.230469 28.460938 22.070312 29.035156 21.917969 C 29.449219 21.808594 29.894531 21.824219 30.109375 21.804688 C 31.445312 21.761719 31.53125 21.863281 31.277344 22.96875 M 61.867188 18.246094 C 62.398438 17.632812 62.917969 17.011719 63.457031 16.40625 C 64.089844 15.683594 64.097656 15.640625 63.285156 15.125 C 61.582031 14.046875 59.722656 13.800781 57.761719 14.066406 C 54.5 14.507812 52.015625 17.160156 51.894531 20.386719 C 51.8125 22.507812 52.273438 24.464844 53.886719 25.976562 C 55.402344 27.390625 57.238281 27.96875 59.28125 27.921875 C 60.851562 27.886719 62.335938 27.546875 63.625 26.574219 C 64.015625 26.277344 64.023438 26.203125 63.707031 25.816406 C 63.132812 25.105469 62.539062 24.410156 61.988281 23.683594 C 61.734375 23.355469 61.550781 23.351562 61.21875 23.601562 C 59.457031 24.925781 57.089844 24.171875 56.414062 22.085938 C 56.160156 21.300781 56.203125 20.515625 56.453125 19.734375 C 57.140625 17.605469 59.453125 16.914062 61.171875 18.328125 C 61.28125 18.417969 61.394531 18.5 61.535156 18.609375 C 61.65625 18.476562 61.765625 18.363281 61.867188 18.246094 M 90.828125 14.886719 C 90.832031 14.492188 90.699219 14.34375 90.300781 14.351562 C 89.222656 14.367188 88.144531 14.355469 87.0625 14.355469 C 86.535156 14.355469 86.464844 14.453125 86.464844 15.003906 C 86.46875 18.980469 86.46875 22.957031 86.464844 26.933594 C 86.464844 27.433594 86.53125 27.523438 87.023438 27.527344 C 88.101562 27.527344 89.183594 27.527344 90.261719 27.527344 C 90.777344 27.527344 90.820312 27.476562 90.820312 26.945312 C 90.824219 24.945312 90.820312 22.941406 90.820312 20.9375 C 90.820312 18.9375 90.816406 16.902344 90.828125 14.886719 M 69.03125 14.910156 C 69.03125 14.417969 68.9375 14.347656 68.449219 14.355469 C 67.414062 14.371094 66.375 14.375 65.335938 14.355469 C 64.824219 14.347656 64.71875 14.414062 64.71875 14.921875 C 64.71875 18.945312 64.722656 22.96875 64.710938 26.996094 C 64.710938 27.398438 64.851562 27.535156 65.238281 27.53125 C 66.316406 27.519531 67.398438 27.53125 68.480469 27.527344 C 68.984375 27.523438 69.03125 27.46875 69.03125 26.9375 C 69.03125 24.949219 69.03125 22.957031 69.03125 20.96875 C 69.03125 18.980469 69.03125 16.929688 69.03125 14.910156 M 117.722656 16.605469 C 116.246094 15.5625 114.777344 14.511719 113.292969 13.480469 C 113.003906 13.28125 112.871094 13.066406 112.890625 12.707031 C 112.917969 12.136719 112.898438 11.566406 112.898438 10.964844 C 111.730469 10.964844 110.640625 10.925781 109.5625 10.976562 C 108.613281 11.023438 108.195312 11.488281 108.074219 12.449219 C 108.046875 12.667969 108.027344 12.890625 108.027344 13.113281 C 108.023438 17.710938 108.023438 22.308594 108.027344 26.90625 C 108.027344 27.101562 108.046875 27.296875 108.058594 27.472656 L 112.921875 27.472656 L 112.921875 19.230469 C 113.148438 19.378906 113.285156 19.464844 113.414062 19.558594 C 114.390625 20.257812 115.355469 20.972656 116.339844 21.65625 C 117.457031 22.433594 118.117188 22.324219 118.917969 21.234375 C 119.742188 20.117188 120.539062 18.984375 121.347656 17.859375 C 121.40625 17.773438 121.4375 17.671875 121.492188 17.554688 C 120.949219 17.160156 120.429688 16.78125 119.878906 16.382812 C 118.90625 17.425781 118.890625 17.429688 117.722656 16.605469 M 122.277344 27.46875 L 127.082031 27.46875 C 127.089844 27.316406 127.101562 27.207031 127.101562 27.097656 C 127.101562 22.402344 127.101562 17.707031 127.097656 13.011719 C 127.097656 12.792969 127.070312 12.570312 127.035156 12.351562 C 126.890625 11.484375 126.539062 11.058594 125.675781 11.003906 C 124.5625 10.929688 123.4375 10.984375 122.277344 10.984375 Z M 117.480469 1.050781 C 107.96875 1.03125 100.683594 8.285156 100.597656 17.699219 C 100.511719 27.382812 107.484375 34.917969 117.421875 34.953125 C 127.058594 34.984375 134.269531 27.707031 134.269531 18.007812 C 134.269531 8.3125 127.074219 1.070312 117.480469 1.050781 M 108.597656 5.773438 C 111.675781 3.496094 115.195312 2.742188 118.949219 3.066406 C 122.179688 3.347656 125.054688 4.535156 127.46875 6.753906 C 129.925781 9.011719 131.382812 11.835938 131.921875 15.121094 C 132.582031 19.136719 132.027344 22.96875 129.824219 26.441406 C 127.402344 30.257812 123.855469 32.34375 119.417969 32.882812 C 115.816406 33.324219 112.394531 32.710938 109.308594 30.722656 C 105.574219 28.320312 103.535156 24.804688 102.875 20.433594 C 102.828125 20.121094 102.789062 19.808594 102.769531 19.492188 C 102.734375 18.996094 102.71875 18.496094 102.691406 17.894531 C 102.796875 13.011719 104.519531 8.792969 108.601562 5.773438 " fill-opacity="1" fill-rule="nonzero"/></g><g clip-path="url(#8369da0499)"><path fill="#ffffff" d="M 66.886719 11.015625 C 65.484375 11.023438 64.421875 10.011719 64.40625 8.660156 C 64.386719 7.328125 65.511719 6.234375 66.894531 6.246094 C 68.261719 6.253906 69.367188 7.324219 69.367188 8.640625 C 69.367188 9.957031 68.269531 11.007812 66.886719 11.015625 M 88.65625 6.246094 C 87.3125 6.257812 86.210938 7.316406 86.203125 8.609375 C 86.199219 9.984375 87.261719 11.019531 88.675781 11.019531 C 90.085938 11.015625 91.128906 10.007812 91.132812 8.648438 C 91.132812 7.277344 90.054688 6.230469 88.65625 6.242188 M 60.167969 41.300781 C 60.078125 42.492188 59.378906 43.394531 58.292969 43.65625 C 56.941406 43.984375 55.722656 43.699219 54.726562 42.683594 C 54.472656 42.425781 54.28125 42.449219 54.074219 42.707031 C 54.003906 42.792969 53.9375 42.886719 53.855469 42.960938 C 53.578125 43.191406 53.667969 43.359375 53.910156 43.558594 C 55.039062 44.488281 56.304688 44.917969 57.777344 44.773438 C 60.035156 44.546875 61.300781 43.183594 61.304688 40.894531 C 61.304688 38.625 61.304688 36.355469 61.304688 34.085938 C 61.304688 33.359375 61.222656 33.296875 60.507812 33.339844 C 60.246094 33.355469 60.171875 33.472656 60.179688 33.710938 C 60.191406 33.953125 60.183594 34.199219 60.183594 34.488281 C 58.125 32.808594 55.921875 32.75 54.507812 34.300781 C 53.101562 35.84375 53.085938 38.351562 54.476562 39.8125 C 55.910156 41.316406 58.222656 41.253906 60.175781 39.609375 C 60.175781 40.210938 60.207031 40.761719 60.167969 41.304688 M 57.40625 34.101562 C 59.011719 34.085938 60.273438 35.378906 60.292969 37.058594 C 60.316406 38.734375 59.148438 39.921875 57.480469 39.933594 C 55.792969 39.941406 54.636719 38.777344 54.625 37.050781 C 54.613281 35.390625 55.8125 34.117188 57.402344 34.101562 M 84.292969 33.960938 C 84.28125 33.410156 84.199219 33.359375 83.605469 33.335938 C 83.113281 33.3125 83.15625 33.621094 83.15625 33.9375 C 83.160156 37.3125 83.160156 40.6875 83.160156 44.058594 C 83.160156 44.160156 83.160156 44.257812 83.164062 44.351562 C 83.179688 44.886719 83.578125 44.753906 83.894531 44.78125 C 84.253906 44.8125 84.300781 44.605469 84.296875 44.3125 C 84.289062 42.96875 84.292969 41.625 84.292969 40.277344 L 84.292969 39.761719 C 85.265625 40.507812 86.21875 41.074219 87.410156 41.082031 C 88.640625 41.089844 89.585938 40.550781 90.285156 39.578125 C 91.476562 37.921875 91.230469 35.394531 89.777344 34.085938 C 88.277344 32.734375 86.109375 32.871094 84.292969 34.488281 C 84.292969 34.261719 84.296875 34.109375 84.292969 33.960938 M 87.0625 40.152344 C 85.429688 40.160156 84.1875 38.863281 84.1875 37.148438 C 84.1875 35.417969 85.398438 34.117188 87.027344 34.101562 C 88.671875 34.082031 89.839844 35.339844 89.839844 37.136719 C 89.84375 38.910156 88.707031 40.144531 87.0625 40.152344 M 70.265625 33.125 C 68.179688 33.050781 66.339844 34.792969 66.289062 36.882812 C 66.226562 39.320312 67.839844 41.082031 70.15625 41.113281 C 72.578125 41.144531 74.253906 39.53125 74.316406 37.113281 C 74.371094 34.878906 72.679688 33.210938 70.265625 33.125 M 69.308594 39.980469 C 68.300781 39.617188 67.769531 38.835938 67.550781 37.808594 C 67.214844 36.25 67.988281 34.734375 69.363281 34.257812 C 71.28125 33.59375 73.132812 35.019531 73.125 37.160156 C 73.121094 39.273438 71.234375 40.675781 69.308594 39.980469 M 80.644531 40.5 C 80.683594 40.898438 80.785156 40.929688 81.417969 40.917969 C 81.78125 40.914062 81.730469 40.6875 81.730469 40.46875 C 81.722656 39.125 81.710938 37.78125 81.703125 36.4375 C 81.699219 35.582031 81.710938 34.726562 81.695312 33.875 C 81.6875 33.382812 81.597656 33.351562 80.984375 33.335938 C 80.546875 33.320312 80.566406 33.582031 80.566406 33.878906 C 80.566406 35.082031 80.566406 36.285156 80.554688 37.492188 C 80.550781 38.210938 80.34375 38.878906 79.859375 39.421875 C 79.28125 40.074219 78.550781 40.273438 77.707031 40.074219 C 76.925781 39.886719 76.558594 39.328125 76.410156 38.597656 C 76.335938 38.214844 76.308594 37.816406 76.304688 37.429688 C 76.292969 36.253906 76.300781 35.074219 76.300781 33.898438 C 76.296875 33.375 76.242188 33.339844 75.726562 33.320312 C 75.320312 33.304688 75.175781 33.433594 75.183594 33.867188 C 75.21875 35.421875 75.175781 36.976562 75.222656 38.527344 C 75.269531 40.179688 76.589844 41.261719 78.226562 41.105469 C 79.171875 41.015625 79.914062 40.601562 80.597656 39.886719 C 80.613281 40.089844 80.621094 40.296875 80.640625 40.5 M 63.777344 33.808594 C 63.738281 33.328125 63.738281 33.347656 63.050781 33.335938 C 62.652344 33.332031 62.6875 33.578125 62.6875 33.835938 C 62.699219 36.007812 62.707031 38.175781 62.71875 40.34375 C 62.722656 40.867188 62.789062 40.894531 63.390625 40.917969 C 63.859375 40.933594 63.867188 40.652344 63.859375 40.320312 C 63.855469 40.253906 63.847656 40.183594 63.847656 40.113281 C 63.871094 38.839844 63.859375 37.566406 63.925781 36.296875 C 63.988281 35.132812 64.671875 34.429688 65.78125 34.273438 C 66.027344 34.238281 66.28125 34.269531 66.53125 34.253906 C 66.632812 34.246094 66.765625 34.226562 66.824219 34.160156 C 67.136719 33.800781 66.929688 33.214844 66.464844 33.171875 C 66.167969 33.144531 65.851562 33.175781 65.558594 33.234375 C 64.835938 33.371094 64.332031 33.84375 63.84375 34.488281 C 63.8125 34.195312 63.792969 34 63.777344 33.808594 M 4.742188 14.917969 C 4.738281 14.394531 4.65625 14.347656 4.125 14.359375 C 3.144531 14.382812 2.164062 14.390625 1.1875 14.371094 C 0.621094 14.355469 0.550781 14.390625 0.550781 14.945312 C 0.546875 18.9375 0.546875 22.933594 0.546875 26.929688 C 0.546875 27.484375 0.585938 27.527344 1.132812 27.527344 C 2.15625 27.527344 3.175781 27.523438 4.199219 27.527344 C 4.863281 27.527344 4.917969 27.484375 4.914062 26.816406 C 4.902344 24.738281 4.882812 22.664062 4.882812 20.585938 C 4.878906 19.820312 4.984375 19.078125 5.4375 18.429688 C 5.933594 17.722656 6.617188 17.472656 7.441406 17.625 C 8.203125 17.769531 8.578125 18.320312 8.742188 19.03125 C 8.816406 19.355469 8.855469 19.691406 8.855469 20.023438 C 8.863281 22.332031 8.859375 24.644531 8.859375 26.953125 C 8.859375 27.476562 8.90625 27.523438 9.425781 27.523438 C 10.476562 27.527344 11.53125 27.523438 12.582031 27.523438 C 13.128906 27.523438 13.175781 27.476562 13.175781 26.933594 C 13.175781 24.769531 13.171875 22.605469 13.175781 20.441406 C 13.175781 19.589844 13.371094 18.808594 13.964844 18.15625 C 14.746094 17.296875 16.636719 17.296875 17 18.929688 C 17.09375 19.351562 17.164062 19.789062 17.167969 20.21875 C 17.183594 22.46875 17.183594 24.71875 17.164062 26.972656 C 17.160156 27.402344 17.316406 27.535156 17.71875 27.527344 C 18.785156 27.515625 19.851562 27.527344 20.917969 27.523438 C 21.433594 27.523438 21.488281 27.46875 21.488281 26.953125 C 21.488281 24.484375 21.492188 22.015625 21.484375 19.546875 C 21.484375 19.097656 21.460938 18.644531 21.390625 18.203125 C 21.203125 17.035156 20.828125 15.941406 19.929688 15.121094 C 18.300781 13.632812 15.433594 13.574219 13.699219 14.996094 C 13.304688 15.320312 12.972656 15.722656 12.605469 16.09375 C 10.980469 13.335938 6.675781 13.3125 4.742188 15.933594 C 4.742188 15.535156 4.742188 15.226562 4.742188 14.914062 M 41.65625 14.917969 C 41.65625 14.402344 41.578125 14.351562 41.082031 14.359375 C 40.058594 14.378906 39.035156 14.375 38.011719 14.359375 C 37.539062 14.355469 37.449219 14.40625 37.449219 14.882812 C 37.449219 18.921875 37.453125 22.960938 37.441406 27.003906 C 37.441406 27.410156 37.585938 27.535156 37.972656 27.53125 C 39.039062 27.515625 40.105469 27.527344 41.171875 27.527344 C 41.769531 27.527344 41.804688 27.488281 41.804688 26.882812 C 41.808594 24.734375 41.808594 22.582031 41.804688 20.433594 C 41.804688 19.734375 41.925781 19.074219 42.335938 18.496094 C 42.882812 17.722656 43.640625 17.464844 44.539062 17.636719 C 45.335938 17.789062 45.714844 18.371094 45.859375 19.125 C 45.9375 19.535156 46.003906 19.957031 46.007812 20.375 C 46.019531 22.554688 46.011719 24.734375 46.011719 26.914062 C 46.011719 27.480469 46.058594 27.527344 46.632812 27.527344 C 47.671875 27.527344 48.707031 27.527344 49.746094 27.527344 C 50.304688 27.527344 50.382812 27.460938 50.378906 26.910156 C 50.375 26.136719 50.347656 25.371094 50.347656 24.601562 C 50.339844 22.84375 50.359375 21.082031 50.339844 19.324219 C 50.324219 17.890625 50.042969 16.53125 49.0625 15.402344 C 47.640625 13.765625 44.035156 13.222656 42.046875 15.621094 C 41.949219 15.742188 41.84375 15.859375 41.65625 16.078125 C 41.65625 15.609375 41.65625 15.261719 41.65625 14.917969 M 75.582031 14.929688 C 75.578125 14.390625 75.511719 14.355469 74.976562 14.363281 C 73.984375 14.382812 72.988281 14.382812 71.996094 14.363281 C 71.476562 14.351562 71.386719 14.40625 71.386719 14.929688 C 71.386719 18.9375 71.386719 22.949219 71.386719 26.957031 C 71.386719 27.492188 71.417969 27.523438 71.945312 27.527344 C 72.96875 27.527344 73.992188 27.523438 75.015625 27.527344 C 75.707031 27.527344 75.757812 27.488281 75.753906 26.796875 C 75.746094 24.71875 75.726562 22.644531 75.722656 20.566406 C 75.71875 19.753906 75.847656 18.976562 76.394531 18.324219 C 76.957031 17.652344 77.683594 17.480469 78.503906 17.648438 C 79.265625 17.808594 79.632812 18.367188 79.78125 19.078125 C 79.875 19.53125 79.933594 19.996094 79.9375 20.457031 C 79.953125 22.621094 79.941406 24.785156 79.945312 26.949219 C 79.945312 27.519531 79.953125 27.53125 80.53125 27.523438 C 80.890625 27.519531 81.25 27.492188 81.609375 27.492188 C 82.316406 27.496094 83.023438 27.503906 83.730469 27.53125 C 84.125 27.546875 84.308594 27.445312 84.285156 26.996094 C 84.246094 26.34375 84.28125 25.6875 84.273438 25.035156 C 84.25 22.785156 84.292969 20.53125 84.167969 18.289062 C 84.0625 16.40625 83.128906 14.957031 81.300781 14.308594 C 79.421875 13.640625 77.695312 14 76.210938 15.375 C 76.015625 15.558594 75.851562 15.769531 75.582031 16.066406 C 75.582031 15.609375 75.582031 15.269531 75.582031 14.929688 M 31.359375 26.851562 C 31.347656 27.492188 31.40625 27.539062 32.027344 27.527344 C 32.90625 27.519531 33.785156 27.519531 34.664062 27.527344 C 35.253906 27.535156 35.3125 27.496094 35.3125 26.910156 C 35.3125 24.703125 35.332031 22.496094 35.300781 20.289062 C 35.289062 19.550781 35.203125 18.808594 35.058594 18.085938 C 34.6875 16.242188 33.746094 14.847656 31.867188 14.277344 C 30.816406 13.957031 29.734375 13.921875 28.652344 13.988281 C 26.878906 14.097656 25.273438 14.675781 23.882812 15.808594 C 23.492188 16.128906 23.496094 16.203125 23.835938 16.5625 C 24.28125 17.039062 24.730469 17.511719 25.160156 17.996094 C 25.648438 18.542969 25.640625 18.546875 26.230469 18.125 C 27.246094 17.402344 28.355469 17.039062 29.613281 17.261719 C 30.507812 17.421875 31.160156 18.054688 31.214844 18.792969 C 31.238281 19.125 31.128906 19.269531 30.785156 19.277344 C 30.066406 19.296875 29.34375 19.324219 28.628906 19.382812 C 27.195312 19.507812 25.828125 19.851562 24.5625 20.582031 C 22.207031 21.941406 22.4375 25.691406 24.546875 26.984375 C 25.792969 27.75 27.140625 27.992188 28.574219 27.675781 C 29.597656 27.449219 30.472656 26.9375 31.359375 26.179688 C 31.359375 26.480469 31.359375 26.664062 31.359375 26.851562 M 31.28125 22.964844 C 30.90625 24.605469 28.898438 25.460938 27.460938 24.589844 C 26.699219 24.125 26.609375 23.054688 27.367188 22.554688 C 27.855469 22.230469 28.460938 22.070312 29.035156 21.917969 C 29.449219 21.808594 29.894531 21.824219 30.109375 21.804688 C 31.445312 21.761719 31.53125 21.863281 31.277344 22.96875 M 61.867188 18.246094 C 62.398438 17.632812 62.917969 17.011719 63.457031 16.40625 C 64.089844 15.683594 64.097656 15.640625 63.285156 15.125 C 61.582031 14.046875 59.722656 13.800781 57.761719 14.066406 C 54.5 14.507812 52.015625 17.160156 51.894531 20.386719 C 51.8125 22.507812 52.273438 24.464844 53.886719 25.976562 C 55.402344 27.390625 57.238281 27.96875 59.28125 27.921875 C 60.851562 27.886719 62.335938 27.546875 63.625 26.574219 C 64.015625 26.277344 64.023438 26.203125 63.707031 25.816406 C 63.132812 25.105469 62.539062 24.410156 61.988281 23.683594 C 61.734375 23.355469 61.550781 23.351562 61.21875 23.601562 C 59.457031 24.925781 57.089844 24.171875 56.414062 22.085938 C 56.160156 21.300781 56.203125 20.515625 56.453125 19.734375 C 57.140625 17.605469 59.453125 16.914062 61.171875 18.328125 C 61.28125 18.417969 61.394531 18.5 61.535156 18.609375 C 61.65625 18.476562 61.765625 18.363281 61.867188 18.246094 M 90.828125 14.886719 C 90.832031 14.492188 90.699219 14.34375 90.300781 14.351562 C 89.222656 14.367188 88.144531 14.355469 87.0625 14.355469 C 86.535156 14.355469 86.464844 14.453125 86.464844 15.003906 C 86.46875 18.980469 86.46875 22.957031 86.464844 26.933594 C 86.464844 27.433594 86.53125 27.523438 87.023438 27.527344 C 88.101562 27.527344 89.183594 27.527344 90.261719 27.527344 C 90.777344 27.527344 90.820312 27.476562 90.820312 26.945312 C 90.824219 24.945312 90.820312 22.941406 90.820312 20.9375 C 90.820312 18.9375 90.816406 16.902344 90.828125 14.886719 M 69.03125 14.910156 C 69.03125 14.417969 68.9375 14.347656 68.449219 14.355469 C 67.414062 14.371094 66.375 14.375 65.335938 14.355469 C 64.824219 14.347656 64.71875 14.414062 64.71875 14.921875 C 64.71875 18.945312 64.722656 22.96875 64.710938 26.996094 C 64.710938 27.398438 64.851562 27.535156 65.238281 27.53125 C 66.316406 27.519531 67.398438 27.53125 68.480469 27.527344 C 68.984375 27.523438 69.03125 27.46875 69.03125 26.9375 C 69.03125 24.949219 69.03125 22.957031 69.03125 20.96875 C 69.03125 18.980469 69.03125 16.929688 69.03125 14.910156 M 117.722656 16.605469 C 116.246094 15.5625 114.777344 14.511719 113.292969 13.480469 C 113.003906 13.28125 112.871094 13.066406 112.890625 12.707031 C 112.917969 12.136719 112.898438 11.566406 112.898438 10.964844 C 111.730469 10.964844 110.640625 10.925781 109.5625 10.976562 C 108.613281 11.023438 108.195312 11.488281 108.074219 12.449219 C 108.046875 12.667969 108.027344 12.890625 108.027344 13.113281 C 108.023438 17.710938 108.023438 22.308594 108.027344 26.90625 C 108.027344 27.101562 108.046875 27.296875 108.058594 27.472656 L 112.921875 27.472656 L 112.921875 19.230469 C 113.148438 19.378906 113.285156 19.464844 113.414062 19.558594 C 114.390625 20.257812 115.355469 20.972656 116.339844 21.65625 C 117.457031 22.433594 118.117188 22.324219 118.917969 21.234375 C 119.742188 20.117188 120.539062 18.984375 121.347656 17.859375 C 121.40625 17.773438 121.4375 17.671875 121.492188 17.554688 C 120.949219 17.160156 120.429688 16.78125 119.878906 16.382812 C 118.90625 17.425781 118.890625 17.429688 117.722656 16.605469 M 122.277344 27.46875 L 127.082031 27.46875 C 127.089844 27.316406 127.101562 27.207031 127.101562 27.097656 C 127.101562 22.402344 127.101562 17.707031 127.097656 13.011719 C 127.097656 12.792969 127.070312 12.570312 127.035156 12.351562 C 126.890625 11.484375 126.539062 11.058594 125.675781 11.003906 C 124.5625 10.929688 123.4375 10.984375 122.277344 10.984375 Z M 117.480469 1.050781 C 107.96875 1.03125 100.683594 8.285156 100.597656 17.699219 C 100.511719 27.382812 107.484375 34.917969 117.421875 34.953125 C 127.058594 34.984375 134.269531 27.707031 134.269531 18.007812 C 134.269531 8.3125 127.074219 1.070312 117.480469 1.050781 M 108.597656 5.773438 C 111.675781 3.496094 115.195312 2.742188 118.949219 3.066406 C 122.179688 3.347656 125.054688 4.535156 127.46875 6.753906 C 129.925781 9.011719 131.382812 11.835938 131.921875 15.121094 C 132.582031 19.136719 132.027344 22.96875 129.824219 26.441406 C 127.402344 30.257812 123.855469 32.34375 119.417969 32.882812 C 115.816406 33.324219 112.394531 32.710938 109.308594 30.722656 C 105.574219 28.320312 103.535156 24.804688 102.875 20.433594 C 102.828125 20.121094 102.789062 19.808594 102.769531 19.492188 C 102.734375 18.996094 102.71875 18.496094 102.691406 17.894531 C 102.796875 13.011719 104.519531 8.792969 108.601562 5.773438 " fill-opacity="1" fill-rule="nonzero"/></g><g clip-path="url(#7ba2f4e14d)"><g transform="matrix(1, 0, 0, 1, 45, 25)"><g clip-path="url(#f8d076dbbe)"><g fill="#ffffff" fill-opacity="1"><g transform="translate(0.555347, 15.410764)"><g><path d="M 0.765625 -1.515625 C 1.367188 -1.171875 2.046875 -1 2.796875 -1 C 3.335938 -1 3.765625 -1.09375 4.078125 -1.28125 C 4.390625 -1.46875 4.546875 -1.71875 4.546875 -2.03125 C 4.546875 -2.320312 4.421875 -2.535156 4.171875 -2.671875 C 3.929688 -2.804688 3.535156 -2.957031 2.984375 -3.125 C 2.484375 -3.269531 2.070312 -3.414062 1.75 -3.5625 C 1.425781 -3.71875 1.144531 -3.945312 0.90625 -4.25 C 0.675781 -4.550781 0.5625 -4.945312 0.5625 -5.4375 C 0.5625 -6.113281 0.796875 -6.632812 1.265625 -7 C 1.734375 -7.375 2.378906 -7.5625 3.203125 -7.5625 C 3.628906 -7.5625 4.039062 -7.515625 4.4375 -7.421875 C 4.84375 -7.335938 5.1875 -7.21875 5.46875 -7.0625 L 5.1875 -5.890625 C 4.90625 -6.054688 4.59375 -6.179688 4.25 -6.265625 C 3.90625 -6.347656 3.5625 -6.390625 3.21875 -6.390625 C 2.757812 -6.390625 2.410156 -6.304688 2.171875 -6.140625 C 1.929688 -5.972656 1.8125 -5.742188 1.8125 -5.453125 C 1.8125 -5.128906 1.941406 -4.890625 2.203125 -4.734375 C 2.460938 -4.585938 2.875 -4.429688 3.4375 -4.265625 C 3.945312 -4.117188 4.351562 -3.972656 4.65625 -3.828125 C 4.96875 -3.691406 5.234375 -3.484375 5.453125 -3.203125 C 5.679688 -2.921875 5.796875 -2.554688 5.796875 -2.109375 C 5.796875 -1.390625 5.523438 -0.828125 4.984375 -0.421875 C 4.453125 -0.0234375 3.722656 0.171875 2.796875 0.171875 C 1.867188 0.171875 1.085938 0 0.453125 -0.34375 Z M 0.765625 -1.515625 "/></g></g></g><g fill="#ffffff" fill-opacity="1"><g transform="translate(6.881829, 15.410764)"><g><path d="M 7.546875 -3.84375 C 7.546875 -3.675781 7.535156 -3.476562 7.515625 -3.25 L 1.84375 -3.25 C 1.925781 -2.519531 2.195312 -1.960938 2.65625 -1.578125 C 3.113281 -1.191406 3.710938 -1 4.453125 -1 C 4.890625 -1 5.320312 -1.0625 5.75 -1.1875 C 6.175781 -1.320312 6.5625 -1.507812 6.90625 -1.75 L 7.25 -0.671875 C 6.894531 -0.410156 6.472656 -0.203125 5.984375 -0.046875 C 5.492188 0.0976562 4.976562 0.171875 4.4375 0.171875 C 3.675781 0.171875 3.003906 0.015625 2.421875 -0.296875 C 1.835938 -0.609375 1.382812 -1.054688 1.0625 -1.640625 C 0.738281 -2.222656 0.578125 -2.910156 0.578125 -3.703125 C 0.578125 -4.453125 0.722656 -5.117188 1.015625 -5.703125 C 1.304688 -6.285156 1.710938 -6.738281 2.234375 -7.0625 C 2.765625 -7.394531 3.367188 -7.5625 4.046875 -7.5625 C 4.734375 -7.5625 5.34375 -7.40625 5.875 -7.09375 C 6.40625 -6.78125 6.816406 -6.34375 7.109375 -5.78125 C 7.398438 -5.21875 7.546875 -4.570312 7.546875 -3.84375 Z M 4.078125 -6.421875 C 3.472656 -6.421875 2.976562 -6.238281 2.59375 -5.875 C 2.207031 -5.507812 1.960938 -5.003906 1.859375 -4.359375 L 6.28125 -4.359375 C 6.226562 -4.984375 6.003906 -5.484375 5.609375 -5.859375 C 5.210938 -6.234375 4.703125 -6.421875 4.078125 -6.421875 Z M 4.078125 -6.421875 "/></g></g></g><g fill="#ffffff" fill-opacity="1"><g transform="translate(15.03146, 15.410764)"><g><path d="M 4.265625 -7.515625 C 4.585938 -7.515625 4.875 -7.460938 5.125 -7.359375 L 4.953125 -6.125 C 4.703125 -6.207031 4.457031 -6.25 4.21875 -6.25 C 3.632812 -6.25 3.179688 -6.054688 2.859375 -5.671875 C 2.546875 -5.296875 2.390625 -4.734375 2.390625 -3.984375 L 2.390625 0 L 1.140625 0 L 1.140625 -7.40625 L 2.3125 -7.40625 L 2.3125 -6.21875 C 2.71875 -7.082031 3.367188 -7.515625 4.265625 -7.515625 Z M 4.265625 -7.515625 "/></g></g></g><g fill="#ffffff" fill-opacity="1"><g transform="translate(20.5944, 15.410764)"><g><path d="M 7.40625 -7.40625 L 4.40625 0 L 3.109375 0 L 0.125 -7.40625 L 1.46875 -7.40625 L 3.765625 -1.40625 L 6.078125 -7.40625 Z M 7.40625 -7.40625 "/></g></g></g><g fill="#ffffff" fill-opacity="1"><g transform="translate(28.136318, 15.410764)"><g><path d="M 1.765625 -9.078125 C 1.503906 -9.078125 1.289062 -9.15625 1.125 -9.3125 C 0.957031 -9.476562 0.875 -9.691406 0.875 -9.953125 C 0.875 -10.210938 0.957031 -10.421875 1.125 -10.578125 C 1.289062 -10.742188 1.503906 -10.828125 1.765625 -10.828125 C 2.023438 -10.828125 2.234375 -10.742188 2.390625 -10.578125 C 2.546875 -10.421875 2.625 -10.210938 2.625 -9.953125 C 2.625 -9.691406 2.546875 -9.476562 2.390625 -9.3125 C 2.234375 -9.15625 2.023438 -9.078125 1.765625 -9.078125 Z M 2.390625 -7.40625 L 2.390625 0 L 1.140625 0 L 1.140625 -7.40625 Z M 2.390625 -7.40625 "/></g></g></g><g fill="#ffffff" fill-opacity="1"><g transform="translate(31.657959, 15.410764)"><g><path d="M 4.265625 0.171875 C 3.535156 0.171875 2.894531 0.0078125 2.34375 -0.3125 C 1.789062 -0.632812 1.359375 -1.085938 1.046875 -1.671875 C 0.734375 -2.265625 0.578125 -2.941406 0.578125 -3.703125 C 0.578125 -4.472656 0.734375 -5.148438 1.046875 -5.734375 C 1.359375 -6.316406 1.789062 -6.765625 2.34375 -7.078125 C 2.894531 -7.398438 3.535156 -7.5625 4.265625 -7.5625 C 4.710938 -7.5625 5.140625 -7.492188 5.546875 -7.359375 C 5.953125 -7.234375 6.304688 -7.050781 6.609375 -6.8125 L 6.3125 -5.640625 C 6.03125 -5.878906 5.710938 -6.0625 5.359375 -6.1875 C 5.015625 -6.3125 4.65625 -6.375 4.28125 -6.375 C 3.53125 -6.375 2.929688 -6.128906 2.484375 -5.640625 C 2.046875 -5.160156 1.828125 -4.515625 1.828125 -3.703125 C 1.828125 -2.890625 2.046875 -2.238281 2.484375 -1.75 C 2.929688 -1.257812 3.53125 -1.015625 4.28125 -1.015625 C 4.644531 -1.015625 5.003906 -1.078125 5.359375 -1.203125 C 5.722656 -1.335938 6.039062 -1.519531 6.3125 -1.75 L 6.609375 -0.59375 C 6.304688 -0.34375 5.953125 -0.148438 5.546875 -0.015625 C 5.148438 0.109375 4.722656 0.171875 4.265625 0.171875 Z M 4.265625 0.171875 "/></g></g></g><g clip-path="url(#1976544773)"><g fill="#ffffff" fill-opacity="1"><g transform="translate(38.498664, 15.410764)"><g><path d="M 7.546875 -3.84375 C 7.546875 -3.675781 7.535156 -3.476562 7.515625 -3.25 L 1.84375 -3.25 C 1.925781 -2.519531 2.195312 -1.960938 2.65625 -1.578125 C 3.113281 -1.191406 3.710938 -1 4.453125 -1 C 4.890625 -1 5.320312 -1.0625 5.75 -1.1875 C 6.175781 -1.320312 6.5625 -1.507812 6.90625 -1.75 L 7.25 -0.671875 C 6.894531 -0.410156 6.472656 -0.203125 5.984375 -0.046875 C 5.492188 0.0976562 4.976562 0.171875 4.4375 0.171875 C 3.675781 0.171875 3.003906 0.015625 2.421875 -0.296875 C 1.835938 -0.609375 1.382812 -1.054688 1.0625 -1.640625 C 0.738281 -2.222656 0.578125 -2.910156 0.578125 -3.703125 C 0.578125 -4.453125 0.722656 -5.117188 1.015625 -5.703125 C 1.304688 -6.285156 1.710938 -6.738281 2.234375 -7.0625 C 2.765625 -7.394531 3.367188 -7.5625 4.046875 -7.5625 C 4.734375 -7.5625 5.34375 -7.40625 5.875 -7.09375 C 6.40625 -6.78125 6.816406 -6.34375 7.109375 -5.78125 C 7.398438 -5.21875 7.546875 -4.570312 7.546875 -3.84375 Z M 4.078125 -6.421875 C 3.472656 -6.421875 2.976562 -6.238281 2.59375 -5.875 C 2.207031 -5.507812 1.960938 -5.003906 1.859375 -4.359375 L 6.28125 -4.359375 C 6.226562 -4.984375 6.003906 -5.484375 5.609375 -5.859375 C 5.210938 -6.234375 4.703125 -6.421875 4.078125 -6.421875 Z M 4.078125 -6.421875 "/></g></g></g></g></g></g></g><path stroke-linecap="round" transform="matrix(0, -0.387596, 0.387596, 0, 141.180375, 30.606096)" fill="none" stroke-linejoin="miter" d="M 1.99709 2.003775 L 61.034817 2.003775 " stroke="#f9f9f9" stroke-width="4" stroke-opacity="1" stroke-miterlimit="4"/><g transform="matrix(1, 0, 0, 1, 152, 9)"><g clip-path="url(#1a9b171c70)"><g fill="#ffffff" fill-opacity="1"><g transform="translate(0.383587, 17.809266)"><g><path d="M 4.671875 -16.140625 L 4.671875 -2.59375 L 11.53125 -2.59375 L 11.53125 0 L 1.796875 0 L 1.796875 -16.140625 Z M 4.671875 -16.140625 "/></g></g></g><g fill="#ffffff" fill-opacity="1"><g transform="translate(11.073725, 17.809266)"><g><path d="M 4.28125 -10.9375 L 4.28125 -5.28125 C 4.28125 -4.1875 4.445312 -3.394531 4.78125 -2.90625 C 5.113281 -2.425781 5.617188 -2.1875 6.296875 -2.1875 C 7.109375 -2.1875 7.726562 -2.4375 8.15625 -2.9375 C 8.582031 -3.4375 8.796875 -4.113281 8.796875 -4.96875 L 8.796875 -10.9375 L 11.53125 -10.9375 L 11.53125 0 L 8.9375 0 L 8.9375 -1.75 L 8.890625 -1.75 C 8.253906 -0.394531 7.140625 0.28125 5.546875 0.28125 C 4.304688 0.28125 3.328125 -0.0859375 2.609375 -0.828125 C 1.898438 -1.566406 1.546875 -2.601562 1.546875 -3.9375 L 1.546875 -10.9375 Z M 4.28125 -10.9375 "/></g></g></g><g fill="#ffffff" fill-opacity="1"><g transform="translate(23.017518, 17.809266)"><g><path d="M 6.953125 -11.21875 C 8.609375 -11.21875 9.929688 -10.660156 10.921875 -9.546875 L 9.03125 -7.65625 C 8.34375 -8.382812 7.648438 -8.75 6.953125 -8.75 C 5.984375 -8.75 5.203125 -8.425781 4.609375 -7.78125 C 4.023438 -7.132812 3.734375 -6.363281 3.734375 -5.46875 C 3.734375 -4.5 4.039062 -3.707031 4.65625 -3.09375 C 5.269531 -2.488281 6.035156 -2.1875 6.953125 -2.1875 C 7.835938 -2.1875 8.546875 -2.53125 9.078125 -3.21875 L 10.890625 -1.25 C 10.472656 -0.820312 9.894531 -0.457031 9.15625 -0.15625 C 8.414062 0.132812 7.679688 0.28125 6.953125 0.28125 C 5.285156 0.28125 3.875 -0.25 2.71875 -1.3125 C 1.570312 -2.382812 1 -3.769531 1 -5.46875 C 1 -7.125 1.5625 -8.492188 2.6875 -9.578125 C 3.8125 -10.671875 5.234375 -11.21875 6.953125 -11.21875 Z M 6.953125 -11.21875 "/></g></g></g><g fill="#ffffff" fill-opacity="1"><g transform="translate(32.864286, 17.809266)"><g><path d="M 6.953125 -11.21875 C 8.597656 -11.21875 9.863281 -10.671875 10.75 -9.578125 C 11.632812 -8.484375 12.078125 -7.050781 12.078125 -5.28125 L 12.078125 -4.515625 L 3.734375 -4.515625 C 3.828125 -3.722656 4.144531 -3.09375 4.6875 -2.625 C 5.226562 -2.15625 5.890625 -1.921875 6.671875 -1.921875 C 7.828125 -1.921875 8.8125 -2.410156 9.625 -3.390625 L 11.578125 -1.921875 C 10.390625 -0.453125 8.847656 0.28125 6.953125 0.28125 C 5.285156 0.28125 3.875 -0.25 2.71875 -1.3125 C 1.570312 -2.382812 1 -3.769531 1 -5.46875 C 1 -7.175781 1.570312 -8.5625 2.71875 -9.625 C 3.875 -10.6875 5.285156 -11.21875 6.953125 -11.21875 Z M 9.34375 -6.5625 C 9.332031 -7.425781 9.066406 -8.078125 8.546875 -8.515625 C 8.035156 -8.953125 7.367188 -9.171875 6.546875 -9.171875 C 5.722656 -9.171875 5.070312 -8.929688 4.59375 -8.453125 C 4.125 -7.972656 3.835938 -7.34375 3.734375 -6.5625 Z M 9.34375 -6.5625 "/></g></g></g><g fill="#ffffff" fill-opacity="1"><g transform="translate(44.809026, 17.809266)"><g/></g></g></g></g><g transform="matrix(1, 0, 0, 1, 197, 17)"><g clip-path="url(#5a76349969)"><g clip-path="url(#03e4876aaa)"><g fill="#ffffff" fill-opacity="1"><g transform="translate(1.071987, 10.296418)"><g><path d="M 4 -9.171875 C 4.695312 -9.171875 5.242188 -8.984375 5.640625 -8.609375 C 6.046875 -8.234375 6.25 -7.753906 6.25 -7.171875 C 6.25 -6.710938 6.09375 -6.296875 5.78125 -5.921875 C 5.46875 -5.554688 4.988281 -5.210938 4.34375 -4.890625 L 6.25 -2.859375 L 7.46875 -4.890625 L 8.671875 -4.890625 L 6.9375 -2.109375 L 9 0 L 7.546875 0 L 6.328125 -1.296875 C 5.910156 -0.773438 5.484375 -0.398438 5.046875 -0.171875 C 4.617188 0.046875 4.144531 0.15625 3.625 0.15625 C 2.789062 0.15625 2.101562 -0.0859375 1.5625 -0.578125 C 1.03125 -1.078125 0.765625 -1.691406 0.765625 -2.421875 C 0.773438 -3.523438 1.441406 -4.394531 2.765625 -5.03125 C 2.359375 -5.425781 2.070312 -5.785156 1.90625 -6.109375 C 1.75 -6.429688 1.671875 -6.765625 1.671875 -7.109375 C 1.671875 -7.722656 1.894531 -8.21875 2.34375 -8.59375 C 2.789062 -8.976562 3.34375 -9.171875 4 -9.171875 Z M 2.75 -7.046875 C 2.75 -6.816406 2.820312 -6.585938 2.96875 -6.359375 C 3.113281 -6.128906 3.351562 -5.851562 3.6875 -5.53125 C 4.238281 -5.8125 4.625 -6.078125 4.84375 -6.328125 C 5.070312 -6.578125 5.1875 -6.867188 5.1875 -7.203125 C 5.1875 -7.515625 5.078125 -7.765625 4.859375 -7.953125 C 4.648438 -8.148438 4.375 -8.25 4.03125 -8.25 C 3.664062 -8.25 3.359375 -8.132812 3.109375 -7.90625 C 2.867188 -7.6875 2.75 -7.398438 2.75 -7.046875 Z M 1.828125 -2.453125 C 1.828125 -1.992188 2 -1.597656 2.34375 -1.265625 C 2.695312 -0.929688 3.113281 -0.765625 3.59375 -0.765625 C 3.957031 -0.765625 4.296875 -0.859375 4.609375 -1.046875 C 4.929688 -1.234375 5.285156 -1.554688 5.671875 -2.015625 L 3.421875 -4.375 C 2.835938 -4.050781 2.425781 -3.742188 2.1875 -3.453125 C 1.945312 -3.160156 1.828125 -2.828125 1.828125 -2.453125 Z M 1.828125 -2.453125 "/></g></g></g></g></g></g><g clip-path="url(#848bd09d0c)"><g transform="matrix(1, 0, 0, 1, 206, 9)"><g clip-path="url(#79c9a341a9)"><g fill="#ffffff" fill-opacity="1"><g transform="translate(0.934013, 17.809266)"><g><path d="M 9.484375 -16.546875 C 12.203125 -16.546875 14.316406 -15.867188 15.828125 -14.515625 L 13.703125 -12.375 C 13.148438 -12.90625 12.5 -13.300781 11.75 -13.5625 C 11 -13.820312 10.242188 -13.953125 9.484375 -13.953125 C 7.859375 -13.953125 6.523438 -13.394531 5.484375 -12.28125 C 4.453125 -11.175781 3.9375 -9.8125 3.9375 -8.1875 C 3.9375 -6.40625 4.453125 -4.957031 5.484375 -3.84375 C 6.523438 -2.738281 7.863281 -2.1875 9.5 -2.1875 C 10.988281 -2.1875 12.242188 -2.46875 13.265625 -3.03125 L 13.265625 -6.84375 L 9.96875 -6.84375 L 9.96875 -9.4375 L 16.140625 -9.4375 L 16.140625 -1.1875 C 14.148438 -0.125 11.929688 0.40625 9.484375 0.40625 C 6.992188 0.40625 4.945312 -0.363281 3.34375 -1.90625 C 1.738281 -3.457031 0.9375 -5.488281 0.9375 -8 C 0.9375 -10.550781 1.71875 -12.613281 3.28125 -14.1875 C 4.84375 -15.757812 6.910156 -16.546875 9.484375 -16.546875 Z M 9.484375 -16.546875 "/></g></g></g><g fill="#ffffff" fill-opacity="1"><g transform="translate(17.527729, 17.809266)"><g><path d="M 6.171875 -11.21875 C 7.742188 -11.21875 8.914062 -10.835938 9.6875 -10.078125 C 10.457031 -9.328125 10.84375 -8.148438 10.84375 -6.546875 L 10.84375 0 L 8.390625 0 L 8.390625 -1.5 L 8.328125 -1.5 C 7.578125 -0.3125 6.40625 0.28125 4.8125 0.28125 C 3.625 0.28125 2.660156 -0.0234375 1.921875 -0.640625 C 1.191406 -1.265625 0.828125 -2.054688 0.828125 -3.015625 C 0.828125 -4.285156 1.359375 -5.234375 2.421875 -5.859375 C 3.484375 -6.492188 5.191406 -6.8125 7.546875 -6.8125 L 8.390625 -6.8125 L 8.390625 -7.140625 C 8.390625 -7.773438 8.160156 -8.269531 7.703125 -8.625 C 7.242188 -8.988281 6.632812 -9.171875 5.875 -9.171875 C 4.75 -9.171875 3.78125 -8.789062 2.96875 -8.03125 L 1.53125 -9.453125 C 2.664062 -10.628906 4.210938 -11.21875 6.171875 -11.21875 Z M 3.5625 -3.21875 C 3.5625 -2.738281 3.753906 -2.378906 4.140625 -2.140625 C 4.523438 -1.898438 4.976562 -1.78125 5.5 -1.78125 C 6.4375 -1.78125 7.125 -2.007812 7.5625 -2.46875 C 8.007812 -2.9375 8.234375 -3.519531 8.234375 -4.21875 L 8.234375 -4.90625 L 7.4375 -4.90625 C 4.851562 -4.90625 3.5625 -4.34375 3.5625 -3.21875 Z M 3.5625 -3.21875 "/></g></g></g><g clip-path="url(#a2530d3fce)"><g fill="#ffffff" fill-opacity="1"><g transform="translate(28.628154, 17.809266)"><g><path d="M 5.28125 -11.21875 C 7.082031 -11.21875 8.390625 -10.660156 9.203125 -9.546875 L 7.390625 -7.90625 C 6.835938 -8.65625 6.125 -9.03125 5.25 -9.03125 C 4.800781 -9.03125 4.421875 -8.921875 4.109375 -8.703125 C 3.796875 -8.492188 3.640625 -8.210938 3.640625 -7.859375 C 3.640625 -7.328125 4.179688 -6.945312 5.265625 -6.71875 L 6.25 -6.5 C 7.445312 -6.238281 8.296875 -5.835938 8.796875 -5.296875 C 9.296875 -4.753906 9.546875 -4.066406 9.546875 -3.234375 C 9.546875 -2.171875 9.117188 -1.316406 8.265625 -0.671875 C 7.421875 -0.0351562 6.269531 0.28125 4.8125 0.28125 C 2.96875 0.28125 1.550781 -0.28125 0.5625 -1.40625 L 2.390625 -3.125 C 2.859375 -2.601562 3.289062 -2.25 3.6875 -2.0625 C 4.082031 -1.875 4.519531 -1.78125 5 -1.78125 C 5.5 -1.78125 5.925781 -1.894531 6.28125 -2.125 C 6.632812 -2.351562 6.8125 -2.65625 6.8125 -3.03125 C 6.8125 -3.65625 6.25 -4.097656 5.125 -4.359375 C 3.664062 -4.691406 2.753906 -4.953125 2.390625 -5.140625 C 2.023438 -5.328125 1.734375 -5.550781 1.515625 -5.8125 C 1.296875 -6.082031 1.140625 -6.375 1.046875 -6.6875 C 0.953125 -7 0.90625 -7.332031 0.90625 -7.6875 C 0.90625 -8.757812 1.316406 -9.613281 2.140625 -10.25 C 2.972656 -10.894531 4.019531 -11.21875 5.28125 -11.21875 Z M 5.28125 -11.21875 "/></g></g></g></g></g></g></g></g></g></svg>